<mxfile host="app.diagrams.net" modified="2020-09-22T09:15:51.789Z" agent="5.0 (Windows NT 10.0; Win64; x64) AppleWebKit/537.36 (KHTML, like Gecko) Chrome/85.0.4183.121 Safari/537.36" etag="GjRdHReu-f-vqrydRcCk" version="13.7.3" type="github">
  <diagram id="2bGo-dBgF0XXjYKf6Hbi" name="Page-1">
    <mxGraphModel dx="1384" dy="731" grid="1" gridSize="10" guides="1" tooltips="1" connect="1" arrows="1" fold="1" page="1" pageScale="1" pageWidth="1169" pageHeight="827" math="0" shadow="0">
      <root>
        <mxCell id="0" />
        <mxCell id="1" parent="0" />
        <mxCell id="faiGQghPIG5Olf5uVvA8-1" value="" style="rounded=0;whiteSpace=wrap;html=1;" vertex="1" parent="1">
          <mxGeometry x="84" y="60" width="660" height="1010" as="geometry" />
        </mxCell>
        <mxCell id="faiGQghPIG5Olf5uVvA8-2" value="Système de simplification de caisse enregistreuse" style="text;html=1;strokeColor=none;fillColor=none;align=center;verticalAlign=middle;whiteSpace=wrap;rounded=0;" vertex="1" parent="1">
          <mxGeometry x="275" y="120" width="310" height="20" as="geometry" />
        </mxCell>
        <mxCell id="faiGQghPIG5Olf5uVvA8-3" value="Client" style="shape=umlActor;verticalLabelPosition=bottom;verticalAlign=top;html=1;outlineConnect=0;" vertex="1" parent="1">
          <mxGeometry x="170" y="250" width="30" height="60" as="geometry" />
        </mxCell>
        <mxCell id="faiGQghPIG5Olf5uVvA8-9" value="Articles" style="ellipse;whiteSpace=wrap;html=1;flipV=1;" vertex="1" parent="1">
          <mxGeometry x="130" y="130" width="120" height="80" as="geometry" />
        </mxCell>
        <mxCell id="faiGQghPIG5Olf5uVvA8-10" value="" style="ellipse;whiteSpace=wrap;html=1;" vertex="1" parent="1">
          <mxGeometry x="320" y="170" width="120" height="80" as="geometry" />
        </mxCell>
        <mxCell id="faiGQghPIG5Olf5uVvA8-11" value="" style="endArrow=classic;html=1;exitX=0.5;exitY=0.5;exitDx=0;exitDy=0;exitPerimeter=0;" edge="1" parent="1" source="faiGQghPIG5Olf5uVvA8-3" target="faiGQghPIG5Olf5uVvA8-9">
          <mxGeometry width="50" height="50" relative="1" as="geometry">
            <mxPoint x="225" y="290" as="sourcePoint" />
            <mxPoint x="275" y="240" as="targetPoint" />
          </mxGeometry>
        </mxCell>
        <mxCell id="faiGQghPIG5Olf5uVvA8-13" value="Payer" style="text;html=1;strokeColor=none;fillColor=none;align=center;verticalAlign=middle;whiteSpace=wrap;rounded=0;" vertex="1" parent="1">
          <mxGeometry x="360" y="200" width="40" height="20" as="geometry" />
        </mxCell>
        <mxCell id="faiGQghPIG5Olf5uVvA8-17" value="Label" style="endArrow=classic;html=1;exitX=0.5;exitY=0;exitDx=0;exitDy=0;entryX=0;entryY=0;entryDx=0;entryDy=0;" edge="1" parent="1" source="faiGQghPIG5Olf5uVvA8-9">
          <mxGeometry relative="1" as="geometry">
            <mxPoint x="310" y="260" as="sourcePoint" />
            <mxPoint x="370" y="250" as="targetPoint" />
          </mxGeometry>
        </mxCell>
        <mxCell id="faiGQghPIG5Olf5uVvA8-18" value="include&lt;br&gt;" style="edgeLabel;resizable=0;html=1;align=center;verticalAlign=middle;" connectable="0" vertex="1" parent="faiGQghPIG5Olf5uVvA8-17">
          <mxGeometry relative="1" as="geometry" />
        </mxCell>
        <mxCell id="faiGQghPIG5Olf5uVvA8-21" value="Caisse" style="shape=umlActor;verticalLabelPosition=bottom;verticalAlign=top;html=1;outlineConnect=0;" vertex="1" parent="1">
          <mxGeometry x="670" y="510" width="30" height="60" as="geometry" />
        </mxCell>
        <mxCell id="faiGQghPIG5Olf5uVvA8-35" value="Vérification encaissement" style="ellipse;whiteSpace=wrap;html=1;" vertex="1" parent="1">
          <mxGeometry x="500" y="170" width="120" height="80" as="geometry" />
        </mxCell>
        <mxCell id="faiGQghPIG5Olf5uVvA8-39" value="" style="endArrow=classic;html=1;" edge="1" parent="1" target="faiGQghPIG5Olf5uVvA8-35">
          <mxGeometry width="50" height="50" relative="1" as="geometry">
            <mxPoint x="430" y="230" as="sourcePoint" />
            <mxPoint x="480" y="180" as="targetPoint" />
          </mxGeometry>
        </mxCell>
        <mxCell id="faiGQghPIG5Olf5uVvA8-52" style="edgeStyle=orthogonalEdgeStyle;rounded=0;orthogonalLoop=1;jettySize=auto;html=1;exitX=0.5;exitY=0;exitDx=0;exitDy=0;" edge="1" parent="1" source="faiGQghPIG5Olf5uVvA8-43" target="faiGQghPIG5Olf5uVvA8-10">
          <mxGeometry relative="1" as="geometry" />
        </mxCell>
        <mxCell id="faiGQghPIG5Olf5uVvA8-56" style="edgeStyle=orthogonalEdgeStyle;rounded=0;orthogonalLoop=1;jettySize=auto;html=1;exitX=0.5;exitY=1;exitDx=0;exitDy=0;entryX=0.5;entryY=0.5;entryDx=0;entryDy=0;entryPerimeter=0;" edge="1" parent="1" source="faiGQghPIG5Olf5uVvA8-43" target="faiGQghPIG5Olf5uVvA8-53">
          <mxGeometry relative="1" as="geometry" />
        </mxCell>
        <mxCell id="faiGQghPIG5Olf5uVvA8-43" value="CB" style="ellipse;whiteSpace=wrap;html=1;" vertex="1" parent="1">
          <mxGeometry x="270" y="310" width="60" height="80" as="geometry" />
        </mxCell>
        <mxCell id="faiGQghPIG5Olf5uVvA8-50" style="edgeStyle=orthogonalEdgeStyle;rounded=0;orthogonalLoop=1;jettySize=auto;html=1;exitX=0.5;exitY=0;exitDx=0;exitDy=0;" edge="1" parent="1" source="faiGQghPIG5Olf5uVvA8-45" target="faiGQghPIG5Olf5uVvA8-10">
          <mxGeometry relative="1" as="geometry" />
        </mxCell>
        <mxCell id="faiGQghPIG5Olf5uVvA8-45" value="Liquide" style="ellipse;whiteSpace=wrap;html=1;" vertex="1" parent="1">
          <mxGeometry x="390" y="310" width="60" height="80" as="geometry" />
        </mxCell>
        <mxCell id="faiGQghPIG5Olf5uVvA8-49" style="edgeStyle=orthogonalEdgeStyle;rounded=0;orthogonalLoop=1;jettySize=auto;html=1;" edge="1" parent="1" source="faiGQghPIG5Olf5uVvA8-48" target="faiGQghPIG5Olf5uVvA8-10">
          <mxGeometry relative="1" as="geometry" />
        </mxCell>
        <mxCell id="faiGQghPIG5Olf5uVvA8-48" value="Chèques" style="ellipse;whiteSpace=wrap;html=1;" vertex="1" parent="1">
          <mxGeometry x="330" y="310" width="60" height="80" as="geometry" />
        </mxCell>
        <mxCell id="faiGQghPIG5Olf5uVvA8-53" value="Banque" style="shape=umlActor;verticalLabelPosition=bottom;verticalAlign=top;html=1;outlineConnect=0;" vertex="1" parent="1">
          <mxGeometry x="175" y="430" width="30" height="60" as="geometry" />
        </mxCell>
        <mxCell id="faiGQghPIG5Olf5uVvA8-58" value="Enregistrement numéro d&#39;article" style="ellipse;whiteSpace=wrap;html=1;" vertex="1" parent="1">
          <mxGeometry x="500" y="290" width="120" height="80" as="geometry" />
        </mxCell>
        <mxCell id="faiGQghPIG5Olf5uVvA8-60" value="Label" style="endArrow=classic;html=1;exitX=0.5;exitY=0;exitDx=0;exitDy=0;entryX=0;entryY=0;entryDx=0;entryDy=0;" edge="1" parent="1">
          <mxGeometry relative="1" as="geometry">
            <mxPoint x="565" y="300" as="sourcePoint" />
            <mxPoint x="555" y="230" as="targetPoint" />
          </mxGeometry>
        </mxCell>
        <mxCell id="faiGQghPIG5Olf5uVvA8-61" value="include&lt;br&gt;" style="edgeLabel;resizable=0;html=1;align=center;verticalAlign=middle;" connectable="0" vertex="1" parent="faiGQghPIG5Olf5uVvA8-60">
          <mxGeometry relative="1" as="geometry" />
        </mxCell>
        <mxCell id="faiGQghPIG5Olf5uVvA8-62" value="Label" style="endArrow=classic;html=1;entryX=0;entryY=1;entryDx=0;entryDy=0;" edge="1" parent="1" source="faiGQghPIG5Olf5uVvA8-48" target="faiGQghPIG5Olf5uVvA8-35">
          <mxGeometry relative="1" as="geometry">
            <mxPoint x="450" y="350" as="sourcePoint" />
            <mxPoint x="440" y="280" as="targetPoint" />
          </mxGeometry>
        </mxCell>
        <mxCell id="faiGQghPIG5Olf5uVvA8-63" value="include&lt;br&gt;" style="edgeLabel;resizable=0;html=1;align=center;verticalAlign=middle;" connectable="0" vertex="1" parent="faiGQghPIG5Olf5uVvA8-62">
          <mxGeometry relative="1" as="geometry" />
        </mxCell>
      </root>
    </mxGraphModel>
  </diagram>
</mxfile>
